<?xml version="1.0" encoding="UTF-8"?>
<svg width="160" height="220" viewBox="0 0 160 220" fill="none" xmlns="http://www.w3.org/2000/svg">
  <!-- Pot -->
  <rect x="30" y="170" width="100" height="30" rx="6" fill="#A4632B"/>
  <rect x="24" y="150" width="112" height="28" rx="8" fill="#C17B35"/>
  <rect x="28" y="154" width="104" height="10" rx="4" fill="#D28A45"/>
  <!-- Soil -->
  <ellipse cx="80" cy="150" rx="46" ry="10" fill="#6B4E2E"/>
  <!-- Stem -->
  <path d="M80 150 C78 130 76 120 80 100 C84 84 86 66 80 48" stroke="#5B7D2F" stroke-width="6" stroke-linecap="round"/>
  <!-- Leaves -->
  <ellipse cx="60" cy="120" rx="24" ry="12" fill="#3FA35B" transform="rotate(-18 60 120)"/>
  <ellipse cx="100" cy="110" rx="24" ry="12" fill="#3FA35B" transform="rotate(18 100 110)"/>
  <ellipse cx="56" cy="92" rx="18" ry="10" fill="#2F8E49" transform="rotate(-24 56 92)"/>
  <ellipse cx="104" cy="86" rx="18" ry="10" fill="#2F8E49" transform="rotate(24 104 86)"/>
  <!-- Flower -->
  <circle cx="82" cy="58" r="16" fill="#F8C12D"/>
  <circle cx="82" cy="58" r="8" fill="#E35A4A"/>
  <circle cx="68" cy="58" r="8" fill="#F2D05A"/>
  <circle cx="96" cy="58" r="8" fill="#F2D05A"/>
  <circle cx="82" cy="44" r="8" fill="#F2D05A"/>
  <circle cx="82" cy="72" r="8" fill="#F2D05A"/>
</svg>


