<?xml version="1.0" encoding="UTF-8"?>
<svg width="600" height="220" viewBox="0 0 600 220" xmlns="http://www.w3.org/2000/svg">
  <defs>
    <linearGradient id="wood" x1="0" x2="0" y1="0" y2="1">
      <stop offset="0%" stop-color="#B87333"/>
      <stop offset="100%" stop-color="#8B4513"/>
    </linearGradient>
    <linearGradient id="top" x1="0" x2="0" y1="0" y2="1">
      <stop offset="0%" stop-color="#D19A66"/>
      <stop offset="100%" stop-color="#A5692B"/>
    </linearGradient>
  </defs>

  <!-- Encimera -->
  <rect x="10" y="10" width="580" height="30" rx="8" fill="url(#top)"/>

  <!-- Frente -->
  <rect x="30" y="40" width="540" height="140" rx="6" fill="url(#wood)"/>

  <!-- Paneles frontales -->
  <g opacity="0.25" fill="#000">
    <rect x="70" y="60" width="90" height="100" rx="4"/>
    <rect x="200" y="60" width="90" height="100" rx="4"/>
    <rect x="330" y="60" width="90" height="100" rx="4"/>
    <rect x="460" y="60" width="90" height="100" rx="4"/>
  </g>

  <!-- Zócalo -->
  <rect x="20" y="180" width="560" height="20" rx="4" fill="#7A4216"/>

  <!-- Taburetes (simplificados) -->
  <g fill="#AA6A2D">
    <rect x="95" y="120" width="40" height="8" rx="4"/>
    <rect x="225" y="120" width="40" height="8" rx="4"/>
    <rect x="355" y="120" width="40" height="8" rx="4"/>
    <rect x="485" y="120" width="40" height="8" rx="4"/>
  </g>
  <g stroke="#8B5E34" stroke-width="10" stroke-linecap="round">
    <line x1="110" y1="125" x2="100" y2="180"/>
    <line x1="120" y1="125" x2="130" y2="180"/>
    <line x1="240" y1="125" x2="230" y2="180"/>
    <line x1="250" y1="125" x2="260" y2="180"/>
    <line x1="370" y1="125" x2="360" y2="180"/>
    <line x1="380" y1="125" x2="390" y2="180"/>
    <line x1="500" y1="125" x2="490" y2="180"/>
    <line x1="510" y1="125" x2="520" y2="180"/>
  </g>
</svg>



